<?xml version="1.0" encoding="UTF-8" standalone="no"?>
<svg
   width="150.01114mm"
   height="23.921921mm"
   viewBox="0 0 150.01114 23.921918"
   version="1.1"
   xmlns="http://www.w3.org/2000/svg"
   xmlns:svg="http://www.w3.org/2000/svg">
  <g
     transform="translate(-30.730482,-92.191448)">
    <path
       fill="black"
       strokeWidth="0"
       d="m 91.853146,93.153146 c -1.69191,0 -2.622816,0.98713 -2.848405,2.36885 -0.225589,1.35353 0.395009,2.34042 2.115117,2.34042 1.69191,0 2.622591,-0.98689 2.81998,-2.34042 0.225565,-1.38172 -0.394781,-2.36885 -2.086692,-2.36885 z m 40.013584,0 c -1.69191,0 -2.6223,0.98713 -2.84789,2.36885 -0.22555,1.35353 0.39449,2.34042 2.1146,2.34042 1.69191,0 2.62259,-0.98689 2.81998,-2.34042 0.22557,-1.38172 -0.39478,-2.36885 -2.08669,-2.36885 z m -89.417803,0.47955 c -4.596356,0 -7.923744,2.0304 -8.600508,6.401164 -0.592168,3.60941 1.86152,6.00622 5.724714,6.31641 l 1.550811,0.14108 c 1.889299,0.16919 3.439861,0.70469 3.214274,2.312 -0.338383,2.0585 -2.114914,2.67891 -4.370794,2.67891 -2.284079,0 -3.975593,-1.01536 -3.665408,-2.96106 h -4.51187 c -0.676764,4.28617 2.735218,6.85229 7.557162,6.85229 4.991134,0 8.741713,-1.88918 9.474874,-6.57014 0.620367,-3.8068 -2.397211,-5.97824 -6.626986,-6.34483 l -1.55081,-0.14056 c -1.466323,-0.11279 -2.509393,-0.93057 -2.312003,-2.2841 0.310183,-1.748304 1.635102,-2.509924 3.468004,-2.509924 1.861101,0 3.101969,1.09987 2.819984,2.819984 h 4.483447 c 0.648565,-4.060594 -2.284124,-6.711224 -6.654891,-6.711224 z m 103.190603,0.14418 c -0.69564,0 -1.31168,0.55734 -1.38079,1.24953 l -1.86758,18.704814 c -0.0691,0.69219 0.43555,1.24953 1.13119,1.24953 h 3.37809 c 0.69564,0 1.31116,-0.55734 1.38028,-1.24953 l 1.86758,-18.704814 c 0.0691,-0.69219 -0.43504,-1.24953 -1.13068,-1.24953 z m 8.46873,0 c -0.69564,0 -1.31167,0.55734 -1.38078,1.24953 l -1.86759,18.704814 c -0.0691,0.69219 0.43555,1.24953 1.13119,1.24953 h 3.37809 c 0.69564,0 1.31116,-0.55734 1.38028,-1.24953 l 1.86759,-18.704814 c 0.0691,-0.69219 -0.43505,-1.24953 -1.13069,-1.24953 z m 8.46874,0 c -0.69563,0 -1.31168,0.55734 -1.38079,1.24953 l -1.86759,18.704814 c -0.0691,0.69219 0.43557,1.24953 1.1312,1.24953 h 3.37808 c 0.69563,0 1.31117,-0.55734 1.38029,-1.24953 l 1.86758,-18.704814 c 0.0691,-0.69219 -0.43505,-1.24953 -1.13068,-1.24953 z m 12.34395,0 c -0.71385,0 -1.42903,0.55734 -1.60352,1.24953 l -4.71547,18.704814 c -0.1745,0.6922 0.25973,1.24953 0.97358,1.24953 h 3.31246 c 0.71384,0 1.42903,-0.55733 1.60352,-1.24953 l 4.71496,-18.704814 c 0.17449,-0.69219 -0.25975,-1.24953 -0.97359,-1.24953 z m -103.65311,0.47594 -3.270601,20.584794 h 4.539774 l 1.381828,-8.71317 0.05633,-0.3948 c 0.338381,-1.74831 1.494388,-2.79156 3.242695,-2.79156 1.607315,0 2.509463,1.21266 2.255677,2.81998 l -1.437638,9.07955 h 4.539774 l 1.381827,-8.79791 c 0.648565,-3.94779 -0.677067,-7.133934 -4.145483,-7.133934 h -0.197404 c -2.396873,0 -4.004186,1.127634 -5.019332,2.960544 l 1.212846,-7.613494 z m 40.0141,0 -3.27112,20.584794 h 4.53977 l 1.38183,-8.71317 0.0563,-0.3948 c 0.33838,-1.74831 1.49439,-2.79156 3.2427,-2.79156 1.60732,0 2.50998,1.21266 2.25619,2.81998 l -1.43816,9.07955 h 4.53978 l 1.38182,-8.79791 c 0.64857,-3.94779 -0.67655,-7.133934 -4.14496,-7.133934 h -0.19741 c -2.39687,0 -4.00418,1.127634 -5.01932,2.960544 l 1.21232,-7.613494 z m -56.475626,0.046 -0.349847,2.86287 h 12.286589 l 0.349327,-2.86287 z m 44.293415,0.91313 -0.648531,4.17339 h -2.36833 l -0.535887,3.299024 h 2.36885 l -0.959121,6.119 c -0.59217,3.6658 1.74842,6.23167 5.55522,6.23167 h 2.17144 l 0.59222,-3.8065 h -2.25619 c -1.32533,0 -2.11489,-0.95906 -1.8893,-2.25619 l 0.98702,-6.28798 h 4.48346 l 0.53588,-3.299024 h -4.48345 l 0.64854,-4.17339 z m -39.759841,3.91913 c -1.917498,0 -3.242684,0.0566 -5.131987,0.22583 l -0.592212,3.807014 c 2.114887,-0.141 3.581405,-0.22583 5.696293,-0.22583 1.409925,0 2.255956,0.98712 2.030367,2.36885 l -2.4e-5,0.0563 h -2.792077 c -4.004187,0 -7.162398,1.21268 -7.754566,4.90668 -0.479374,2.98904 1.607369,4.96248 4.765601,4.96248 2.594262,0 4.427416,-1.18413 5.442561,-3.29901 l -0.451134,2.90421 h 3.581201 l 1.522387,-9.47436 c 0.620368,-3.7786 -2.17123,-6.232184 -6.31641,-6.232184 z m 27.719238,0.25426 -0.535884,3.326924 h 2.058789 l -1.945618,12.12536 h 4.539775 l 2.45308,-15.452284 z m 40.013584,0 -0.53537,3.326924 h 2.05827 L 126.65,114.83762 h 4.53978 l 2.45358,-15.452284 z m -68.973574,8.487334 h 2.848405 l -0.253731,1.43816 c -0.422977,1.74831 -1.466708,2.79156 -3.243213,2.79156 -1.409925,0 -2.340412,-0.81776 -2.143021,-2.0867 0.225591,-1.46631 1.29704,-2.14302 2.79156,-2.14302 z" />
  </g>
</svg>
