<?xml version="1.0" encoding="UTF-8" standalone="no"?>
<!-- Created with Inkscape (http://www.inkscape.org/) -->

<svg
   width="92.96653mm"
   height="55.572487mm"
   viewBox="0 0 92.966528 55.572486"
   version="1.1"
   id="svg1"
   xmlns="http://www.w3.org/2000/svg"
   xmlns:svg="http://www.w3.org/2000/svg">
  <defs
     id="defs1" />
  <g
     id="layer1"
     transform="translate(-61.092943,-134.33086)">
    <path
       id="rect1"
       style="fill:#1a1a1a;stroke-width:1.00694"
       d="m 86.094197,138.03538 c -1.650131,0 -2.978764,1.32877 -2.978764,2.9789 l 1.56e-4,44.59106 c 0,1.65013 1.328311,2.97838 2.978442,2.97838 h 8.013465 c 1.650131,0 2.978816,-1.32825 2.978816,-2.97838 l -1.56e-4,-44.59106 c 0,-1.65013 -1.328363,-2.9789 -2.978494,-2.9789 z m 20.089213,0 c -1.65013,0 -2.97876,1.32877 -2.97876,2.9789 l 1.5e-4,44.59106 c 0,1.65013 1.32831,2.97838 2.97844,2.97838 h 8.01347 c 1.65013,0 2.9783,-1.32825 2.9783,-2.97838 l 3.6e-4,-44.59106 c 0,-1.65013 -1.32888,-2.9789 -2.97901,-2.9789 z m 20.0887,0 c -1.65013,0 -2.97877,1.32877 -2.97877,2.9789 l 1.6e-4,44.59106 c 0,1.65013 1.32831,2.97838 2.97844,2.97838 h 8.01346 c 1.65013,0 2.97882,-1.32825 2.97882,-2.97838 l -1.5e-4,-44.59106 c 0,-1.65013 -1.32837,-2.9789 -2.9785,-2.9789 z m 29.2809,0 c -1.69333,0 -3.25745,1.32878 -3.50742,2.9789 l -6.75499,44.59106 c -0.24996,1.65013 0.91201,2.97838 2.60534,2.97838 h 7.85741 c 1.69333,0 3.25801,-1.32825 3.50798,-2.97838 l 6.75447,-44.59106 c 0.24996,-1.65012 -0.91154,-2.9789 -2.60487,-2.9789 z"
       transform="matrix(1,0,-0.09935572,0.99505198,0,0)" />
  </g>
</svg>
